<svg xmlns="http://www.w3.org/2000/svg" xmlns:xlink="http://www.w3.org/1999/xlink" width="1366" zoomAndPan="magnify" viewBox="0 0 1024.5 576" height="768" preserveAspectRatio="xMidYMid meet" version="1.0"><defs><clipPath id="6cfdaf8ae6"><path d="M 361.09375 190.15625 L 609 190.15625 L 609 332 L 361.09375 332 Z M 361.09375 190.15625 " clip-rule="nonzero"/></clipPath></defs><g clip-path="url(#6cfdaf8ae6)"><path fill="#eaeaea" d="M 445.789062 331.324219 C 448.304688 331.324219 450.683594 330.253906 452.355469 328.394531 C 460.457031 319.363281 472.171875 313.675781 485.234375 313.675781 C 498.296875 313.675781 510.015625 319.363281 518.113281 328.394531 C 519.785156 330.253906 522.164062 331.324219 524.679688 331.324219 L 573.464844 331.324219 C 592.9375 331.324219 608.757812 315.503906 608.757812 296.03125 L 608.757812 225.449219 C 608.757812 205.976562 592.9375 190.15625 573.464844 190.15625 L 397.007812 190.15625 C 377.535156 190.15625 361.714844 205.976562 361.714844 225.449219 L 361.714844 296.03125 C 361.714844 315.503906 377.535156 331.324219 397.007812 331.324219 L 445.789062 331.324219 " fill-opacity="1" fill-rule="evenodd"/></g><path fill="#344e41" d="M 443.359375 371.679688 C 442.601562 369.371094 442.015625 366.976562 441.636719 364.496094 C 437.933594 340.421875 454.476562 317.882812 478.53125 314.195312 C 502.605469 310.488281 525.144531 327.03125 528.832031 351.089844 C 532.539062 375.164062 515.996094 397.703125 491.9375 401.390625 C 483.996094 402.613281 476.238281 401.632812 469.242188 398.910156 C 464.710938 397.132812 459.59375 399.375 457.820312 403.921875 C 456.042969 408.453125 458.285156 413.574219 462.832031 415.347656 C 472.605469 419.171875 483.496094 420.550781 494.625 418.828125 C 528.316406 413.660156 551.457031 382.105469 546.289062 348.402344 C 541.101562 314.710938 509.550781 291.570312 475.84375 296.738281 C 442.15625 301.925781 419.011719 333.476562 424.179688 367.183594 C 424.714844 370.628906 425.542969 373.992188 426.59375 377.210938 C 428.128906 381.832031 433.125 384.347656 437.742188 382.8125 C 442.359375 381.296875 444.878906 376.300781 443.359375 371.679688 " fill-opacity="1" fill-rule="evenodd"/><path fill="#588157" d="M 407.292969 234.269531 L 407.292969 269.5625 C 407.292969 274.441406 411.238281 278.386719 416.117188 278.386719 C 420.976562 278.386719 424.9375 274.441406 424.9375 269.5625 L 424.9375 234.269531 C 424.9375 229.394531 420.976562 225.449219 416.117188 225.449219 C 411.238281 225.449219 407.292969 229.394531 407.292969 234.269531 " fill-opacity="1" fill-rule="evenodd"/><path fill="#588157" d="M 396.421875 250.726562 L 426.972656 268.375 C 431.195312 270.820312 436.589844 269.375 439.035156 265.152344 C 441.464844 260.929688 440.019531 255.535156 435.796875 253.105469 L 405.242188 235.460938 C 401.019531 233.011719 395.628906 234.460938 393.179688 238.683594 C 390.75 242.90625 392.199219 248.296875 396.421875 250.726562 " fill-opacity="1" fill-rule="evenodd"/><path fill="#588157" d="M 405.242188 268.375 L 435.796875 250.726562 C 440.019531 248.296875 441.464844 242.90625 439.035156 238.683594 C 436.589844 234.460938 431.195312 233.011719 426.972656 235.460938 L 396.421875 253.105469 C 392.199219 255.535156 390.75 260.929688 393.179688 265.152344 C 395.628906 269.375 401.019531 270.820312 405.242188 268.375 " fill-opacity="1" fill-rule="evenodd"/><path fill="#588157" d="M 476.414062 234.269531 L 476.414062 269.5625 C 476.414062 274.441406 480.359375 278.386719 485.234375 278.386719 C 490.113281 278.386719 494.058594 274.441406 494.058594 269.5625 L 494.058594 234.269531 C 494.058594 229.394531 490.113281 225.449219 485.234375 225.449219 C 480.359375 225.449219 476.414062 229.394531 476.414062 234.269531 " fill-opacity="1" fill-rule="evenodd"/><path fill="#588157" d="M 465.539062 250.726562 L 496.109375 268.375 C 500.3125 270.820312 505.722656 269.375 508.152344 265.152344 C 510.582031 260.929688 509.136719 255.535156 504.929688 253.105469 L 474.363281 235.460938 C 470.15625 233.011719 464.746094 234.460938 462.316406 238.683594 C 459.886719 242.90625 461.332031 248.296875 465.539062 250.726562 " fill-opacity="1" fill-rule="evenodd"/><path fill="#588157" d="M 474.363281 268.375 L 504.929688 250.726562 C 509.136719 248.296875 510.582031 242.90625 508.152344 238.683594 C 505.722656 234.460938 500.3125 233.011719 496.109375 235.460938 L 465.539062 253.105469 C 461.332031 255.535156 459.886719 260.929688 462.316406 265.152344 C 464.746094 269.375 470.15625 270.820312 474.363281 268.375 " fill-opacity="1" fill-rule="evenodd"/><path fill="#588157" d="M 545.53125 234.269531 L 545.53125 269.5625 C 545.53125 274.441406 549.496094 278.386719 554.355469 278.386719 C 559.230469 278.386719 563.175781 274.441406 563.175781 269.5625 L 563.175781 234.269531 C 563.175781 229.394531 559.230469 225.449219 554.355469 225.449219 C 549.496094 225.449219 545.53125 229.394531 545.53125 234.269531 " fill-opacity="1" fill-rule="evenodd"/><path fill="#588157" d="M 534.675781 250.726562 L 565.226562 268.375 C 569.449219 270.820312 574.84375 269.375 577.289062 265.152344 C 579.71875 260.929688 578.273438 255.535156 574.050781 253.105469 L 543.496094 235.460938 C 539.277344 233.011719 533.882812 234.460938 531.433594 238.683594 C 529.003906 242.90625 530.453125 248.296875 534.675781 250.726562 " fill-opacity="1" fill-rule="evenodd"/><path fill="#588157" d="M 543.496094 268.375 L 574.050781 250.726562 C 578.273438 248.296875 579.71875 242.90625 577.289062 238.683594 C 574.84375 234.460938 569.449219 233.011719 565.226562 235.460938 L 534.675781 253.105469 C 530.453125 255.535156 529.003906 260.929688 531.433594 265.152344 C 533.882812 269.375 539.277344 270.820312 543.496094 268.375 " fill-opacity="1" fill-rule="evenodd"/><path fill="#344e41" d="M 434.882812 366.769531 L 451.804688 343.695312 C 454.683594 339.765625 460.214844 338.921875 464.144531 341.800781 C 468.054688 344.679688 468.917969 350.210938 466.039062 354.140625 L 443.894531 384.3125 C 441 388.242188 435.484375 389.101562 431.554688 386.207031 L 401.367188 364.066406 C 397.453125 361.1875 396.59375 355.671875 399.488281 351.742188 C 402.363281 347.816406 407.878906 346.96875 411.808594 349.847656 L 434.882812 366.769531 " fill-opacity="1" fill-rule="evenodd"/></svg>